<svg version="1.1" class="highcharts-root" style="font-family:&quot;Lucida Grande&quot;, &quot;Lucida Sans Unicode&quot;, Arial, Helvetica, sans-serif;font-size:12px;" xmlns="http://www.w3.org/2000/svg" width="762" height="275" viewBox="0 0 762 275"><desc>Created with Highstock 6.2.0</desc><defs><clipPath id="highcharts-7kvaj9i-3466"><rect x="0" y="0" width="742" height="194" fill="none"></rect></clipPath><clipPath id="highcharts-7kvaj9i-3567"><rect x="-15.614918256529904" y="-45" width="723.9669762995435" height="275" fill="none"></rect></clipPath><clipPath id="highcharts-7kvaj9i-3568"><rect x="0" y="0" width="742" height="194" fill="none"></rect></clipPath><linearGradient x1="0" y1="0" x2="0" y2="1" id="highcharts-7kvaj9i-3569"><stop offset="0" stop-color="rgb(65,173,51)" stop-opacity="1"></stop><stop offset="1" stop-color="rgb(65,173,51)" stop-opacity="0"></stop></linearGradient></defs><rect fill="#ffffff" class="highcharts-background" x="0" y="0" width="762" height="275" rx="0" ry="0"></rect><rect fill="none" class="highcharts-plot-background" x="10" y="45" width="742" height="194"></rect><g class="highcharts-grid highcharts-xaxis-grid " data-z-index="1"><path fill="none" data-z-index="1" class="highcharts-grid-line" d="M 62.5 45 L 62.5 239" opacity="1"></path><path fill="none" data-z-index="1" class="highcharts-grid-line" d="M 141.5 45 L 141.5 239" opacity="1"></path><path fill="none" data-z-index="1" class="highcharts-grid-line" d="M 220.5 45 L 220.5 239" opacity="1"></path><path fill="none" data-z-index="1" class="highcharts-grid-line" d="M 299.5 45 L 299.5 239" opacity="1"></path><path fill="none" data-z-index="1" class="highcharts-grid-line" d="M 378.5 45 L 378.5 239" opacity="1"></path><path fill="none" data-z-index="1" class="highcharts-grid-line" d="M 457.5 45 L 457.5 239" opacity="1"></path><path fill="none" data-z-index="1" class="highcharts-grid-line" d="M 536.5 45 L 536.5 239" opacity="1"></path><path fill="none" data-z-index="1" class="highcharts-grid-line" d="M 615.5 45 L 615.5 239" opacity="1"></path><path fill="none" data-z-index="1" class="highcharts-grid-line" d="M 692.5 45 L 692.5 239" opacity="1"></path></g><g class="highcharts-grid highcharts-yaxis-grid " data-z-index="1"><path fill="none" stroke="#e6e6e6" stroke-width="1" data-z-index="1" class="highcharts-grid-line" d="M 10 239.5 L 752 239.5" opacity="1"></path><path fill="none" stroke="#e6e6e6" stroke-width="1" data-z-index="1" class="highcharts-grid-line" d="M 10 191.5 L 752 191.5" opacity="1"></path><path fill="none" stroke="#e6e6e6" stroke-width="1" data-z-index="1" class="highcharts-grid-line" d="M 10 142.5 L 752 142.5" opacity="1"></path><path fill="none" stroke="#e6e6e6" stroke-width="1" data-z-index="1" class="highcharts-grid-line" d="M 10 94.5 L 752 94.5" opacity="1"></path><path fill="none" stroke="#e6e6e6" stroke-width="1" data-z-index="1" class="highcharts-grid-line" d="M 10 44.5 L 752 44.5" opacity="1"></path></g><rect fill="none" class="highcharts-plot-border" data-z-index="1" x="10" y="45" width="742" height="194"></rect><g class="highcharts-axis highcharts-xaxis " data-z-index="2"><path fill="none" class="highcharts-tick" stroke="#ccd6eb" stroke-width="1" d="M 62.5 239 L 62.5 249" opacity="1"></path><path fill="none" class="highcharts-tick" stroke="#ccd6eb" stroke-width="1" d="M 141.5 239 L 141.5 249" opacity="1"></path><path fill="none" class="highcharts-tick" stroke="#ccd6eb" stroke-width="1" d="M 220.5 239 L 220.5 249" opacity="1"></path><path fill="none" class="highcharts-tick" stroke="#ccd6eb" stroke-width="1" d="M 299.5 239 L 299.5 249" opacity="1"></path><path fill="none" class="highcharts-tick" stroke="#ccd6eb" stroke-width="1" d="M 378.5 239 L 378.5 249" opacity="1"></path><path fill="none" class="highcharts-tick" stroke="#ccd6eb" stroke-width="1" d="M 457.5 239 L 457.5 249" opacity="1"></path><path fill="none" class="highcharts-tick" stroke="#ccd6eb" stroke-width="1" d="M 536.5 239 L 536.5 249" opacity="1"></path><path fill="none" class="highcharts-tick" stroke="#ccd6eb" stroke-width="1" d="M 615.5 239 L 615.5 249" opacity="1"></path><path fill="none" class="highcharts-tick" stroke="#ccd6eb" stroke-width="1" d="M 692.5 239 L 692.5 249" opacity="1"></path><path fill="none" class="highcharts-axis-line" stroke="#ccd6eb" stroke-width="1" data-z-index="7" d="M 10 239.5 L 752 239.5"></path></g><g class="highcharts-axis highcharts-yaxis " data-z-index="2"><path fill="none" class="highcharts-axis-line" data-z-index="7" d="M 752 45 L 752 239"></path></g><g class="highcharts-series-group" data-z-index="3"><g data-z-index="0.1" class="highcharts-series highcharts-series-0 highcharts-area-series " transform="translate(10,45) scale(1 1)" clip-path="url(#highcharts-7kvaj9i-3568)">

<path fill="url(#highcharts-7kvaj9i-3569)" d="M 0 105.342 L 7.4949494949495 58.19999999999999 L 14.989898989899 58.19999999999999 L 22.484848484848 58.19999999999999 L 29.979797979798 50.828 L 37.474747474747 50.828 L 44.969696969697 50.828 L 52.464646464646 50.828 L 59.959595959596 50.828 L 67.454545454545 50.828 L 74.949494949495 50.828 L 82.444444444444 50.828 L 89.939393939394 50.828 L 97.434343434343 50.828 L 104.92929292929 50.828 L 112.42424242424 50.828 L 119.91919191919 91.17999999999999 L 127.41414141414 87.3 L 134.90909090909 23.28 L 142.40404040404 89.822 L 149.89898989899 96.806 L 157.39393939394 104.954 L 164.88888888889 103.596 L 172.38383838384 109.02799999999999 L 179.87878787879 107.67 L 187.37373737374 103.984 L 194.86868686869 94.866 L 202.36363636364 105.536 L 209.85858585859 94.28399999999999 L 217.35353535354 112.52 L 224.84848484848 112.13199999999999 L 232.34343434343 103.984 L 239.83838383838 107.476 L 247.33333333333 103.402 L 254.82828282828 103.596 L 262.32323232323 113.49 L 269.81818181818 108.252 L 277.31313131313 118.53399999999999 L 284.80808080808 116.39999999999999 L 292.30303030303 114.46 L 299.79797979798 116.982 L 307.29292929293 119.31 L 314.78787878788 115.42999999999999 L 322.28282828283 119.116 L 329.77777777778 116.206 L 337.27272727273 117.952 L 344.76767676768 116.39999999999999 L 352.26262626263 115.624 L 359.75757575758 114.654 L 367.25252525253 116.982 L 374.74747474747 107.67 L 382.24242424242 115.818 L 389.73737373737 111.356 L 397.23232323232 117.37 L 404.72727272727 116.788 L 412.22222222222 116.39999999999999 L 419.71717171717 116.012 L 427.21212121212 116.982 L 434.70707070707 115.818 L 442.20202020202 116.788 L 449.69696969697 116.594 L 457.19191919192 115.818 L 464.68686868687 117.952 L 472.18181818182 120.086 L 479.67676767677 117.176 L 487.17171717172 118.53399999999999 L 494.66666666667 120.862 L 502.16161616162 119.31 L 509.65656565657 121.63799999999999 L 517.15151515152 117.952 L 524.64646464646 117.952 L 532.14141414141 119.698 L 539.63636363636 117.758 L 547.13131313131 120.474 L 554.62626262626 121.056 L 562.12121212121 119.50399999999999 L 569.61616161616 118.146 L 577.11111111111 120.28 L 584.60606060606 117.758 L 592.10101010101 117.564 L 599.59595959596 118.53399999999999 L 607.09090909091 118.53399999999999 L 614.58585858586 121.63799999999999 L 622.08080808081 117.176 L 629.57575757576 120.862 L 637.07070707071 119.116 L 644.56565656566 120.28 L 652.06060606061 119.31 L 659.55555555556 116.788 L 667.0505050505 120.086 L 674.54545454545 121.63799999999999 L 682.0404040404 121.63799999999999 L 689.53535353535 121.444 L 697.0303030303 122.22 L 704.52525252525 124.16 L 712.0202020202 124.742 L 719.51515151515 124.742 L 727.0101010101 124.742 L 734.50505050505 124.742 L 742 124.742 L 742 194 L 734.50505050505 194 L 727.0101010101 194 L 719.51515151515 194 L 712.0202020202 194 L 704.52525252525 194 L 697.0303030303 194 L 689.53535353535 194 L 682.0404040404 194 L 674.54545454545 194 L 667.0505050505 194 L 659.55555555556 194 L 652.06060606061 194 L 644.56565656566 194 L 637.07070707071 194 L 629.57575757576 194 L 622.08080808081 194 L 614.58585858586 194 L 607.09090909091 194 L 599.59595959596 194 L 592.10101010101 194 L 584.60606060606 194 L 577.11111111111 194 L 569.61616161616 194 L 562.12121212121 194 L 554.62626262626 194 L 547.13131313131 194 L 539.63636363636 194 L 532.14141414141 194 L 524.64646464646 194 L 517.15151515152 194 L 509.65656565657 194 L 502.16161616162 194 L 494.66666666667 194 L 487.17171717172 194 L 479.67676767677 194 L 472.18181818182 194 L 464.68686868687 194 L 457.19191919192 194 L 449.69696969697 194 L 442.20202020202 194 L 434.70707070707 194 L 427.21212121212 194 L 419.71717171717 194 L 412.22222222222 194 L 404.72727272727 194 L 397.23232323232 194 L 389.73737373737 194 L 382.24242424242 194 L 374.74747474747 194 L 367.25252525253 194 L 359.75757575758 194 L 352.26262626263 194 L 344.76767676768 194 L 337.27272727273 194 L 329.77777777778 194 L 322.28282828283 194 L 314.78787878788 194 L 307.29292929293 194 L 299.79797979798 194 L 292.30303030303 194 L 284.80808080808 194 L 277.31313131313 194 L 269.81818181818 194 L 262.32323232323 194 L 254.82828282828 194 L 247.33333333333 194 L 239.83838383838 194 L 232.34343434343 194 L 224.84848484848 194 L 217.35353535354 194 L 209.85858585859 194 L 202.36363636364 194 L 194.86868686869 194 L 187.37373737374 194 L 179.87878787879 194 L 172.38383838384 194 L 164.88888888889 194 L 157.39393939394 194 L 149.89898989899 194 L 142.40404040404 194 L 134.90909090909 194 L 127.41414141414 194 L 119.91919191919 194 L 112.42424242424 194 L 104.92929292929 194 L 97.434343434343 194 L 89.939393939394 194 L 82.444444444444 194 L 74.949494949495 194 L 67.454545454545 194 L 59.959595959596 194 L 52.464646464646 194 L 44.969696969697 194 L 37.474747474747 194 L 29.979797979798 194 L 22.484848484848 194 L 14.989898989899 194 L 7.4949494949495 194 L 0 194" class="highcharts-area" data-z-index="0"></path>

<path fill="none" d="M 0 105.342 L 7.4949494949495 58.19999999999999 L 14.989898989899 58.19999999999999 L 22.484848484848 58.19999999999999 L 29.979797979798 50.828 L 37.474747474747 50.828 L 44.969696969697 50.828 L 52.464646464646 50.828 L 59.959595959596 50.828 L 67.454545454545 50.828 L 74.949494949495 50.828 L 82.444444444444 50.828 L 89.939393939394 50.828 L 97.434343434343 50.828 L 104.92929292929 50.828 L 112.42424242424 50.828 L 119.91919191919 91.17999999999999 L 127.41414141414 87.3 L 134.90909090909 23.28 L 142.40404040404 89.822 L 149.89898989899 96.806 L 157.39393939394 104.954 L 164.88888888889 103.596 L 172.38383838384 109.02799999999999 L 179.87878787879 107.67 L 187.37373737374 103.984 L 194.86868686869 94.866 L 202.36363636364 105.536 L 209.85858585859 94.28399999999999 L 217.35353535354 112.52 L 224.84848484848 112.13199999999999 L 232.34343434343 103.984 L 239.83838383838 107.476 L 247.33333333333 103.402 L 254.82828282828 103.596 L 262.32323232323 113.49 L 269.81818181818 108.252 L 277.31313131313 118.53399999999999 L 284.80808080808 116.39999999999999 L 292.30303030303 114.46 L 299.79797979798 116.982 L 307.29292929293 119.31 L 314.78787878788 115.42999999999999 L 322.28282828283 119.116 L 329.77777777778 116.206 L 337.27272727273 117.952 L 344.76767676768 116.39999999999999 L 352.26262626263 115.624 L 359.75757575758 114.654 L 367.25252525253 116.982 L 374.74747474747 107.67 L 382.24242424242 115.818 L 389.73737373737 111.356 L 397.23232323232 117.37 L 404.72727272727 116.788 L 412.22222222222 116.39999999999999 L 419.71717171717 116.012 L 427.21212121212 116.982 L 434.70707070707 115.818 L 442.20202020202 116.788 L 449.69696969697 116.594 L 457.19191919192 115.818 L 464.68686868687 117.952 L 472.18181818182 120.086 L 479.67676767677 117.176 L 487.17171717172 118.53399999999999 L 494.66666666667 120.862 L 502.16161616162 119.31 L 509.65656565657 121.63799999999999 L 517.15151515152 117.952 L 524.64646464646 117.952 L 532.14141414141 119.698 L 539.63636363636 117.758 L 547.13131313131 120.474 L 554.62626262626 121.056 L 562.12121212121 119.50399999999999 L 569.61616161616 118.146 L 577.11111111111 120.28 L 584.60606060606 117.758 L 592.10101010101 117.564 L 599.59595959596 118.53399999999999 L 607.09090909091 118.53399999999999 L 614.58585858586 121.63799999999999 L 622.08080808081 117.176 L 629.57575757576 120.862 L 637.07070707071 119.116 L 644.56565656566 120.28 L 652.06060606061 119.31 L 659.55555555556 116.788 L 667.0505050505 120.086 L 674.54545454545 121.63799999999999 L 682.0404040404 121.63799999999999 L 689.53535353535 121.444 L 697.0303030303 122.22 L 704.52525252525 124.16 L 712.0202020202 124.742 L 719.51515151515 124.742 L 727.0101010101 124.742 L 734.50505050505 124.742 L 742 124.742" class="highcharts-graph" data-z-index="1" stroke="#41ad33" stroke-width="1" stroke-linejoin="round" stroke-linecap="round"></path>

<path fill="none" d="M -10 105.342 L 0 105.342 L 7.4949494949495 58.19999999999999 L 14.989898989899 58.19999999999999 L 22.484848484848 58.19999999999999 L 29.979797979798 50.828 L 37.474747474747 50.828 L 44.969696969697 50.828 L 52.464646464646 50.828 L 59.959595959596 50.828 L 67.454545454545 50.828 L 74.949494949495 50.828 L 82.444444444444 50.828 L 89.939393939394 50.828 L 97.434343434343 50.828 L 104.92929292929 50.828 L 112.42424242424 50.828 L 119.91919191919 91.17999999999999 L 127.41414141414 87.3 L 134.90909090909 23.28 L 142.40404040404 89.822 L 149.89898989899 96.806 L 157.39393939394 104.954 L 164.88888888889 103.596 L 172.38383838384 109.02799999999999 L 179.87878787879 107.67 L 187.37373737374 103.984 L 194.86868686869 94.866 L 202.36363636364 105.536 L 209.85858585859 94.28399999999999 L 217.35353535354 112.52 L 224.84848484848 112.13199999999999 L 232.34343434343 103.984 L 239.83838383838 107.476 L 247.33333333333 103.402 L 254.82828282828 103.596 L 262.32323232323 113.49 L 269.81818181818 108.252 L 277.31313131313 118.53399999999999 L 284.80808080808 116.39999999999999 L 292.30303030303 114.46 L 299.79797979798 116.982 L 307.29292929293 119.31 L 314.78787878788 115.42999999999999 L 322.28282828283 119.116 L 329.77777777778 116.206 L 337.27272727273 117.952 L 344.76767676768 116.39999999999999 L 352.26262626263 115.624 L 359.75757575758 114.654 L 367.25252525253 116.982 L 374.74747474747 107.67 L 382.24242424242 115.818 L 389.73737373737 111.356 L 397.23232323232 117.37 L 404.72727272727 116.788 L 412.22222222222 116.39999999999999 L 419.71717171717 116.012 L 427.21212121212 116.982 L 434.70707070707 115.818 L 442.20202020202 116.788 L 449.69696969697 116.594 L 457.19191919192 115.818 L 464.68686868687 117.952 L 472.18181818182 120.086 L 479.67676767677 117.176 L 487.17171717172 118.53399999999999 L 494.66666666667 120.862 L 502.16161616162 119.31 L 509.65656565657 121.63799999999999 L 517.15151515152 117.952 L 524.64646464646 117.952 L 532.14141414141 119.698 L 539.63636363636 117.758 L 547.13131313131 120.474 L 554.62626262626 121.056 L 562.12121212121 119.50399999999999 L 569.61616161616 118.146 L 577.11111111111 120.28 L 584.60606060606 117.758 L 592.10101010101 117.564 L 599.59595959596 118.53399999999999 L 607.09090909091 118.53399999999999 L 614.58585858586 121.63799999999999 L 622.08080808081 117.176 L 629.57575757576 120.862 L 637.07070707071 119.116 L 644.56565656566 120.28 L 652.06060606061 119.31 L 659.55555555556 116.788 L 667.0505050505 120.086 L 674.54545454545 121.63799999999999 L 682.0404040404 121.63799999999999 L 689.53535353535 121.444 L 697.0303030303 122.22 L 704.52525252525 124.16 L 712.0202020202 124.742 L 719.51515151515 124.742 L 727.0101010101 124.742 L 734.50505050505 124.742 L 742 124.742 L 752 124.742" stroke-linejoin="round" stroke="rgba(192,192,192,0.0001)" stroke-width="21" visibility="visible" data-z-index="2" class="highcharts-tracker-line"></path></g><g data-z-index="0.1" class="highcharts-markers highcharts-series-0 highcharts-area-series  highcharts-tracker" transform="translate(10,45) scale(1 1)" clip-path="url(#highcharts-7kvaj9i-3567)"></g></g><text x="381" text-anchor="middle" class="highcharts-title" data-z-index="4" style="color:#333333;font-size:16px;fill:#333333;" y="22"></text><text x="381" text-anchor="middle" class="highcharts-subtitle" data-z-index="4" style="color:#666666;fill:#666666;" y="24"></text><g class="highcharts-axis-labels highcharts-xaxis-labels " data-z-index="7"><text x="63.30518021344" style="color:#666666;cursor:default;font-size:11px;fill:#666666;" text-anchor="middle" transform="translate(0,0)" y="258" opacity="1"><tspan>24. Feb</tspan></text><text x="142.19938542344" style="color:#666666;cursor:default;font-size:11px;fill:#666666;" text-anchor="middle" transform="translate(0,0)" y="258" opacity="1"><tspan>26. Feb</tspan></text><text x="221.09359063343" style="color:#666666;cursor:default;font-size:11px;fill:#666666;" text-anchor="middle" transform="translate(0,0)" y="258" opacity="1"><tspan>28. Feb</tspan></text><text x="299.98779584342" style="color:#666666;cursor:default;font-size:11px;fill:#666666;" text-anchor="middle" transform="translate(0,0)" y="258" opacity="1"><tspan>2. Mar</tspan></text><text x="378.88200105342" style="color:#666666;cursor:default;font-size:11px;fill:#666666;" text-anchor="middle" transform="translate(0,0)" y="258" opacity="1"><tspan>4. Mar</tspan></text><text x="457.77620626341" style="color:#666666;cursor:default;font-size:11px;fill:#666666;" text-anchor="middle" transform="translate(0,0)" y="258" opacity="1"><tspan>6. Mar</tspan></text><text x="536.67041147341" style="color:#666666;cursor:default;font-size:11px;fill:#666666;" text-anchor="middle" transform="translate(0,0)" y="258" opacity="1"><tspan>8. Mar</tspan></text><text x="615.5646166834" style="color:#666666;cursor:default;font-size:11px;fill:#666666;" text-anchor="middle" transform="translate(0,0)" y="258" opacity="1"><tspan>10. Mar</tspan></text><text x="692.81519261819" style="color:#666666;cursor:default;font-size:11px;fill:#666666;" text-anchor="middle" transform="translate(0,0)" y="258" opacity="1"><tspan>12. Mar</tspan></text></g><g class="highcharts-axis-labels highcharts-yaxis-labels " data-z-index="7"><text x="752" style="color:#666666;cursor:default;font-size:11px;fill:#666666;" text-anchor="end" transform="translate(0,0)" y="237" opacity="1">0</text><text x="752" style="color:#666666;cursor:default;font-size:11px;fill:#666666;" text-anchor="end" transform="translate(0,0)" y="189" opacity="1">250</text><text x="752" style="color:#666666;cursor:default;font-size:11px;fill:#666666;" text-anchor="end" transform="translate(0,0)" y="140" opacity="1">500</text><text x="752" style="color:#666666;cursor:default;font-size:11px;fill:#666666;" text-anchor="end" transform="translate(0,0)" y="92" opacity="1">750</text><text x="0" style="color:#666666;cursor:default;font-size:11px;fill:#666666;" text-anchor="end" transform="translate(0,0)" y="-9999">1000</text></g><g class="highcharts-range-selector-group" data-z-index="7" transform="translate(0,0)"><g class="highcharts-range-selector-buttons" transform="translate(0,10)"><text x="10" y="15" style="color:#666666;fill:#666666;">Zoom</text><g class="highcharts-button highcharts-button-normal" data-z-index="7" transform="translate(48,0)"><rect fill="#f7f7f7" class=" highcharts-button-box" x="0" y="0" width="32" height="22" rx="2" ry="2"></rect><text x="7.0390625" data-z-index="1" style="font-weight:normal;color:#333333;cursor:pointer;fill:#333333;" y="14">1M</text></g><g class="highcharts-button highcharts-button-normal" data-z-index="7" transform="translate(85,0)"><rect fill="#f7f7f7" class=" highcharts-button-box" x="0" y="0" width="32" height="22" rx="2" ry="2"></rect><text x="7.0390625" data-z-index="1" style="font-weight:normal;color:#333333;cursor:pointer;fill:#333333;" y="14">3M</text></g><g class="highcharts-button highcharts-button-normal" data-z-index="7" transform="translate(122,0)"><rect fill="#f7f7f7" class=" highcharts-button-box" x="0" y="0" width="32" height="22" rx="2" ry="2"></rect><text x="7.0390625" data-z-index="1" style="font-weight:normal;color:#333333;cursor:pointer;fill:#333333;" y="14">6M</text></g><g class="highcharts-button highcharts-button-normal" data-z-index="7" transform="translate(159,0)"><rect fill="#f7f7f7" class=" highcharts-button-box" x="0" y="0" width="32" height="22" rx="2" ry="2"></rect><text x="3.9765625" data-z-index="1" style="font-weight:normal;color:#333333;cursor:pointer;fill:#333333;" y="14">YTD</text></g><g class="highcharts-button highcharts-button-normal" data-z-index="7" transform="translate(196,0)"><rect fill="#f7f7f7" class=" highcharts-button-box" x="0" y="0" width="32" height="22" rx="2" ry="2"></rect><text x="8.46875" data-z-index="1" style="font-weight:normal;color:#333333;cursor:pointer;fill:#333333;" y="14">1Y</text></g><g class="highcharts-button highcharts-button-pressed" data-z-index="7" transform="translate(233,0)"><rect fill="#e6ebf5" class=" highcharts-button-box" x="0" y="0" width="32" height="22" rx="2" ry="2"></rect><text x="8.3984375" data-z-index="1" style="font-weight:bold;color:#000000;cursor:pointer;fill:#000000;" y="14">All</text></g></g></g></svg>