<?xml version="1.0" encoding="utf-8"?>
<!-- Generator: Adobe Illustrator 20.0.0, SVG Export Plug-In . SVG Version: 6.00 Build 0)  -->
<svg version="1.1" id="Layer_1" xmlns="http://www.w3.org/2000/svg" xmlns:xlink="http://www.w3.org/1999/xlink" x="0px" y="0px"
	 viewBox="0 0 100 100" style="enable-background:new 0 0 100 100;" xml:space="preserve">
<style type="text/css">
	.st0{fill:#010101;}
</style>
<path class="st0" d="M50,92.4c-23.2,0-42.1-18.9-42.1-42.1C7.9,27.1,26.8,8.3,50,8.3s42.1,18.9,42.1,42.1
	C92.1,73.5,73.2,92.4,50,92.4z M50,11.8c-21.3,0-38.6,17.3-38.6,38.6c0,21.3,17.3,38.6,38.6,38.6s38.6-17.3,38.6-38.6
	S71.3,11.8,50,11.8z"/>
<path class="st0" d="M50,76.1c-1.6,0-2.9-1.3-2.9-2.9V41.2c0-1.6,1.3-2.9,2.9-2.9c1.6,0,2.9,1.3,2.9,2.9v31.9
	C52.9,74.8,51.6,76.1,50,76.1z"/>
<circle class="st0" cx="50" cy="30.9" r="3.3"/>
</svg>
