<?xml version="1.0" encoding="UTF-8"?>
<svg width="91px" height="91px" viewBox="0 0 91 91" version="1.1" xmlns="http://www.w3.org/2000/svg" xmlns:xlink="http://www.w3.org/1999/xlink">
    <!-- Generator: Sketch 48.2 (47327) - http://www.bohemiancoding.com/sketch -->
    <title>anonymous_black</title>
    <desc>Created with Sketch.</desc>
    <defs></defs>
    <g id="Page-1" stroke="none" stroke-width="1" fill="none" fill-rule="evenodd">
        <g id="anonymous_black" fill="#000000" fill-rule="nonzero">
            <g id="Group">
                <path d="M90.5,90.7 L83.9,90.7 L83.9,86.4 L86.2,86.4 C86.2,85.7 86.2,84.9 86.1,84.1 L90.3,83.9 C90.4,86.3 90.4,88.4 90.4,88.5 L90.4,90.7 L90.5,90.7 Z" id="Shape"></path>
                <path d="M85.8,80 L85.8,79.9 C85.7,79.4 85.1,78 80.7,75.7 L82.7,72 C87.3,74.5 89.5,76.7 89.9,79.3 L89.9,79.5 L85.8,80 Z M5.1,79.8 L1,78.8 C1.6,76.3 3.9,74.1 8.5,71.7 L10.5,75.5 C6,77.9 5.2,79.3 5.1,79.8 Z M76.9,73.8 C74.7,72.8 72,71.7 69,70.6 L68.8,70.5 L70.3,66.5 L70.5,66.6 C73.6,67.7 76.4,68.8 78.7,69.9 L76.9,73.8 Z M14.3,73.6 L12.6,69.7 C14.8,68.7 17.5,67.7 20.4,66.6 C20.6,66.5 20.7,66.5 20.9,66.4 L22.3,70.4 C22.1,70.5 22,70.5 21.8,70.6 C19,71.7 16.4,72.7 14.3,73.6 Z M64.7,69.1 C63.9,68.8 63.2,68.6 62.5,68.4 C58.8,67.2 57,66.6 55.7,65.1 L58.9,62.3 C59.4,62.9 61.2,63.5 63.8,64.3 C64.5,64.5 65.2,64.8 66,65 L64.7,69.1 Z M26.5,69 L25.2,65 C25.9,64.8 26.5,64.6 27.1,64.4 C29.8,63.5 31.7,62.9 32.1,62.3 L35.7,64.6 C34.5,66.4 32.5,67.1 28.5,68.4 C27.7,68.6 27.1,68.8 26.5,69 Z M54.3,59.5 C54.3,59.4 54.3,59.2 54.3,59.1 C54.3,58.7 54.3,58.3 54.3,57.9 C54.3,57.4 54.3,56.9 54.3,56.3 C54.3,53 55.1,51.7 56.3,50.3 C56.4,50.2 56.5,50 56.7,49.8 L60.1,52.4 C60,52.6 59.8,52.8 59.7,52.9 C58.9,53.8 58.6,54.2 58.6,56.3 C58.6,56.9 58.6,57.4 58.6,57.9 C58.6,58.3 58.6,58.7 58.6,59.1 C58.6,59.2 58.6,59.3 58.6,59.5 L54.3,59.5 Z M32.3,59.2 C32.3,58.8 32.3,58.4 32.3,58 C32.3,57.5 32.3,57 32.3,56.4 C32.3,54.4 32,54 31.2,53 C31,52.8 30.8,52.5 30.5,52.2 L33.9,49.7 C34.1,49.9 34.3,50.2 34.4,50.4 C35.6,51.9 36.4,53.2 36.4,56.4 C36.4,57 36.4,57.5 36.4,58 C36.4,58.4 36.4,58.8 36.4,59.2 L32.3,59.2 Z M62.4,48 L58.4,46.6 C58.8,45.3 59.2,43.6 59.6,41.7 C60,39.6 60.3,38.7 61,37.7 L64.6,40 C64.3,40.4 64.1,40.7 63.9,42.4 C63.4,44.6 62.9,46.4 62.4,48 Z M28.3,47.6 C27.8,46.1 27.4,44.4 27.1,42.4 C26.8,40.7 26.6,40.4 26.3,39.9 C26.3,39.8 26.2,39.8 26.2,39.7 L29.8,37.4 C29.8,37.5 29.9,37.5 29.9,37.6 C30.5,38.5 30.9,39.3 31.3,41.7 C31.6,43.5 32,45.1 32.4,46.3 L28.3,47.6 Z M66.4,35.3 L62.3,34.2 C62.4,33.7 62.6,33.1 62.7,32.5 C62.9,31.8 62.9,31.2 62.9,30.8 C62.9,30.2 62.8,29.9 62.6,29.4 C62.4,28.9 62.2,28.2 62.2,27.3 C62.2,27.1 62.2,27 62.2,26.8 L62.3,25.9 L66.5,26.3 L66.4,27.2 C66.4,27.2 66.4,27.3 66.4,27.3 C66.4,27.5 66.4,27.6 66.6,28 C66.8,28.6 67.1,29.5 67.1,30.8 C67.1,31.6 67,32.5 66.8,33.5 C66.7,34.2 66.5,34.8 66.4,35.3 Z M24.4,35 C24.3,34.6 24.2,34.1 24,33.6 C23.8,32.6 23.7,31.7 23.7,30.9 C23.7,29.6 24,28.7 24.2,28.1 C24.3,27.7 24.4,27.6 24.4,27.4 C24.4,27.4 24.4,27.3 24.4,27.3 C24.4,26.9 24.3,26.5 24.3,26.1 L28.5,25.7 C28.5,26.1 28.6,26.5 28.6,26.9 C28.6,27.1 28.6,27.2 28.6,27.4 C28.6,28.3 28.4,29 28.2,29.5 C28,30 27.9,30.3 27.9,30.9 C27.9,31.4 28,32 28.1,32.6 C28.2,33.1 28.3,33.5 28.4,33.9 L24.4,35 Z M66.9,21.9 L62.7,21.5 C62.8,20.9 62.8,20.2 62.9,19.5 C62.9,19.4 62.9,19.2 62.9,19.1 C62.9,17.7 62.4,15.8 61.6,14.1 L65.5,12.3 C66.6,14.6 67.2,17.1 67.2,19.1 C67.2,19.4 67.2,19.6 67.2,19.9 C67.1,20.6 67,21.3 66.9,21.9 Z M23.9,21.6 C23.9,21.1 23.8,20.5 23.7,19.9 C23.7,19.6 23.7,19.4 23.7,19.1 C23.7,16.9 24.4,14.3 25.5,11.9 L29.3,13.8 C28.4,15.6 27.9,17.6 27.9,19.1 C27.9,19.3 27.9,19.4 27.9,19.6 C28,20.2 28,20.8 28.1,21.3 L23.9,21.6 Z M59.6,10.7 C58,8.7 55.9,7.2 53.4,6.1 L55,2.3 C58.1,3.6 60.8,5.5 62.9,8.1 L59.6,10.7 Z M31.4,10.5 L28.2,7.8 C30.3,5.3 33,3.4 36.2,2.1 L37.7,6.1 C35.2,7 33.1,8.5 31.4,10.5 Z M49.6,5.1 C48.3,4.9 46.9,4.7 45.4,4.7 C44,4.7 42.7,4.8 41.5,5 L40.8,0.8 C42.3,0.6 43.8,0.4 45.4,0.4 C47.1,0.4 48.8,0.5 50.3,0.8 L49.6,5.1 Z" id="Shape"></path>
                <path d="M6.9,90.7 L0.3,90.7 L0.3,88.6 C0.3,88.5 0.3,86.4 0.4,84 L4.6,84.2 C4.6,85 4.5,85.8 4.5,86.4 L6.8,86.4 L6.8,90.7 L6.9,90.7 Z" id="Shape"></path>
                <path d="M79.1,90.7 L69.5,90.7 L69.5,86.4 L79.1,86.4 L79.1,90.7 Z M64.7,90.7 L55,90.7 L55,86.4 L64.6,86.4 L64.6,90.7 L64.7,90.7 Z M50.2,90.7 L40.6,90.7 L40.6,86.4 L50.2,86.4 L50.2,90.7 Z M35.8,90.7 L26.2,90.7 L26.2,86.4 L35.8,86.4 L35.8,90.7 Z M21.4,90.7 L11.8,90.7 L11.8,86.4 L21.4,86.4 L21.4,90.7 Z" id="Shape"></path>
            </g>
        </g>
    </g>
</svg>