<?xml version="1.0" encoding="utf-8"?>
<!-- Generator: Adobe Illustrator 19.0.0, SVG Export Plug-In . SVG Version: 6.00 Build 0)  -->
<svg version="1.1" id="Layer_1" xmlns="http://www.w3.org/2000/svg" xmlns:xlink="http://www.w3.org/1999/xlink" x="0px" y="0px"
	 viewBox="0 0 100 100" style="enable-background:new 0 0 100 100;" xml:space="preserve">
<g>
	<path d="M92.2,7.3h-6.1v6.1c0,3.4-2.7,6.1-6.1,6.1H74c-3.4,0-6.1-2.7-6.1-6.1V7.3H31.4v6.1c0,3.4-2.7,6.1-6.1,6.1h-6.1
		c-3.4,0-6.1-2.7-6.1-6.1V7.3H7.1C3.7,7.3,1,10,1,13.4v79.1c0,3.4,2.7,6.1,6.1,6.1h85.1c3.4,0,6.1-2.7,6.1-6.1V13.4
		C98.3,10,95.6,7.3,92.2,7.3z M92.2,92.4H7.1V25.5h85.1V92.4z"/>
	<path d="M21.8,13.3c2,0,3.6-1.6,3.6-3.6v-5c0-2-1.6-3.6-3.6-3.6s-3.6,1.6-3.6,3.6v5C18.2,11.7,19.8,13.3,21.8,13.3z"/>
	<path d="M76.5,13.3c2,0,3.6-1.6,3.6-3.6v-5c0-2-1.6-3.6-3.6-3.6s-3.6,1.6-3.6,3.6v5C72.9,11.7,74.5,13.3,76.5,13.3z"/>
	<rect x="25.3" y="37.7" width="12.2" height="12.2"/>
	<rect x="61.8" y="37.7" width="12.2" height="12.2"/>
	<rect x="43.6" y="37.7" width="12.2" height="12.2"/>
	<rect x="25.3" y="55.9" width="12.2" height="12.2"/>
	<rect x="61.8" y="55.9" width="12.2" height="12.2"/>
	<rect x="43.6" y="55.9" width="12.2" height="12.2"/>
	<rect x="25.3" y="74.2" width="12.2" height="12.2"/>
	<rect x="61.8" y="74.2" width="12.2" height="12.2"/>
	<rect x="43.6" y="74.2" width="12.2" height="12.2"/>
</g>
</svg>
