<?xml version="1.0" encoding="utf-8"?>
<!-- Generator: Adobe Illustrator 19.0.0, SVG Export Plug-In . SVG Version: 6.00 Build 0)  -->
<svg version="1.1" id="Layer_1" xmlns="http://www.w3.org/2000/svg" xmlns:xlink="http://www.w3.org/1999/xlink" x="0px" y="0px"
	 viewBox="-129 203 28 28" style="enable-background:new -129 203 28 28;" xml:space="preserve">
<style type="text/css">
	.st0{fill:#363636;}
</style>
<g id="_x38_74-newspaper_x40_2x.png">
	<g>
		<path class="st0" d="M-111.8,218.8h6.6c0.3,0,0.5-0.2,0.5-0.5s-0.2-0.5-0.5-0.5h-6.6c-0.3,0-0.5,0.2-0.5,0.5
			S-112,218.8-111.8,218.8z M-111.8,210.4h6.6c0.3,0,0.5-0.2,0.5-0.5c0-0.3-0.2-0.5-0.5-0.5h-6.6c-0.3,0-0.5,0.2-0.5,0.5
			C-112.2,210.2-112,210.4-111.8,210.4z M-111.8,213.2h6.6c0.3,0,0.5-0.2,0.5-0.5c0-0.3-0.2-0.5-0.5-0.5h-6.6
			c-0.3,0-0.5,0.2-0.5,0.5C-112.2,213-112,213.2-111.8,213.2z M-111.8,216h6.6c0.3,0,0.5-0.2,0.5-0.5s-0.2-0.5-0.5-0.5h-6.6
			c-0.3,0-0.5,0.2-0.5,0.5S-112,216-111.8,216z M-102.8,206.6h-20.7c-0.6,0-0.9,0.4-0.9,0.9v2.8h-2.8c-0.6,0-0.9,0.4-0.9,0.9v0.9
			v9.9v2.3c0,1.6,1.2,2.8,2.8,2.8h1.9h1.9h18.8c0.6,0,0.9-0.4,0.9-0.9v-18.8C-101.9,207-102.3,206.6-102.8,206.6z M-102.8,226.4
			H-123h-0.3h-0.2h-0.9h-0.5h-0.5c-1,0-1.9-0.8-1.9-1.9v-2.1v-11.1h2.8V224c0,0.3,0.2,0.5,0.5,0.5c0.3,0,0.5-0.2,0.5-0.5v-16.4h20.7
			V226.4z M-121.2,218.8h6.6c0.3,0,0.5-0.2,0.5-0.5v-8.5c0-0.3-0.2-0.5-0.5-0.5h-6.6c-0.3,0-0.5,0.2-0.5,0.5v8.5
			C-121.6,218.7-121.4,218.8-121.2,218.8z M-120.7,210.4h5.6v7.5h-5.6V210.4z M-121.2,224.5h16c0.3,0,0.5-0.2,0.5-0.5
			s-0.2-0.5-0.5-0.5h-16c-0.3,0-0.5,0.2-0.5,0.5S-121.4,224.5-121.2,224.5z M-121.2,221.7h16c0.3,0,0.5-0.2,0.5-0.5
			s-0.2-0.5-0.5-0.5h-16c-0.3,0-0.5,0.2-0.5,0.5S-121.4,221.7-121.2,221.7z"/>
	</g>
</g>
</svg>
