<?xml version="1.0" encoding="utf-8"?>
<!-- Generator: Adobe Illustrator 18.1.1, SVG Export Plug-In . SVG Version: 6.00 Build 0)  -->
<svg version="1.1" id="Layer_1" xmlns="http://www.w3.org/2000/svg" xmlns:xlink="http://www.w3.org/1999/xlink" x="0px" y="0px"
	 viewBox="208.1 318.9 195.8 159.1" enable-background="new 208.1 318.9 195.8 159.1" xml:space="preserve">
<path fill="#27A6D1" d="M220.3,374h24.5c6.7,0,12.2,5.5,12.2,12.2v79.6c0,6.7-5.5,12.2-12.2,12.2h-24.5c-6.7,0-12.2-5.5-12.2-12.2
	v-79.6C208.1,379.5,213.6,374,220.3,374"/>
<path fill="#3DB39E" d="M293.8,318.9h24.5c6.7,0,12.2,5.5,12.2,12.2v134.6c0,6.7-5.5,12.2-12.2,12.2h-24.5
	c-6.7,0-12.2-5.5-12.2-12.2V331.1C281.5,324.4,287,318.9,293.8,318.9"/>
<path fill="#E2584C" d="M367.2,349.5h24.5c6.7,0,12.2,5.5,12.2,12.2v104c0,6.7-5.5,12.2-12.2,12.2h-24.5c-6.7,0-12.2-5.5-12.2-12.2
	v-104C355,355,360.5,349.5,367.2,349.5"/>
</svg>
