<?xml version="1.0" encoding="utf-8"?>
<!-- Generator: Adobe Illustrator 19.0.0, SVG Export Plug-In . SVG Version: 6.00 Build 0)  -->
<svg version="1.1" id="Layer_1" xmlns="http://www.w3.org/2000/svg" xmlns:xlink="http://www.w3.org/1999/xlink" x="0px" y="0px"
	 viewBox="0 0 100 100" style="enable-background:new 0 0 100 100;" xml:space="preserve">
<style type="text/css">
	.st0{fill:#252525;}
</style>
<g>
	<g>
		<path class="st0" d="M50.3,1.3C23.5,1.3,1.8,23,1.8,49.7s21.7,48.5,48.5,48.5c26.7,0,48.4-21.7,48.4-48.4S77,1.3,50.3,1.3z
			 M50.3,90.1C28,90.1,10,72,10,49.8C9.9,27.5,28,9.4,50.3,9.4c22.2,0,40.3,18.1,40.3,40.3C90.6,72,72.5,90.1,50.3,90.1z M49.6,41.9
			c-3.6-1.8-3.2-5.7,2.1-6c4.4-0.2,8.9,1.4,11.7,2.3c0,0,1.8-7.6,2.2-9.4c-4-1.3-7.6-1.9-10.9-2.1v-5.2h-8.1v5.6
			c-8.9,1.9-12.3,8.4-12.3,13.1c0,11.3,13.6,13.2,17.5,15c4.7,2,3.7,5.6-0.3,6.4c-4.5,1-10.7-1.1-14.9-2.7l-2.7,9.2
			c3.7,2,8.9,3.4,12.5,3.8v4.9h8.1v-5.5c7.3-1,13.2-5.4,13.1-13.2C67.8,48.1,57,45.2,49.6,41.9z"/>
	</g>
</g>
</svg>
