<?xml version="1.0" encoding="utf-8"?>
<!-- Generator: Adobe Illustrator 19.0.0, SVG Export Plug-In . SVG Version: 6.00 Build 0)  -->
<svg version="1.1" id="Layer_1" xmlns="http://www.w3.org/2000/svg" xmlns:xlink="http://www.w3.org/1999/xlink" x="0px" y="0px"
	 viewBox="0 0 100 100" enable-background="new 0 0 100 100" xml:space="preserve">
<g>
	<path fill="#16C95E" d="M60.6,61.6c0,5.8-4.7,10.6-10.6,10.6c-5.8,0-10.6-4.7-10.6-10.6v0H7.8c2.9,11.1,9.6,20.7,18.6,27.1h47.1
		c9.1-6.5,15.8-16,18.6-27.1H60.6z"/>
	<path fill="#16C95E" d="M19.9,46.5c-1.7,0-3,1.4-3,3c0,1.7,1.4,3,3,3c1.7,0,3-1.4,3-3C22.9,47.9,21.6,46.5,19.9,46.5 M25.9,31.4
		c-1.7,0-3,1.4-3,3c0,1.7,1.4,3,3,3c1.7,0,3-1.4,3-3C28.9,32.8,27.6,31.4,25.9,31.4 M38,19.4c-1.7,0-3,1.4-3,3c0,1.7,1.4,3,3,3
		c1.7,0,3-1.3,3-3C41,20.7,39.6,19.4,38,19.4 M80.2,46.5c-1.7,0-3,1.4-3,3c0,1.7,1.4,3,3,3c1.7,0,3-1.4,3-3
		C83.2,47.9,81.9,46.5,80.2,46.5 M74.2,31.4c-1.7,0-3,1.4-3,3c0,1.7,1.4,3,3,3c1.7,0,3-1.4,3-3C77.2,32.8,75.8,31.4,74.2,31.4
		 M62.1,19.4c-1.7,0-3,1.4-3,3c0,1.7,1.4,3,3,3c1.7,0,3-1.3,3-3C65.1,20.7,63.8,19.4,62.1,19.4"/>
	<path fill="#16C95E" d="M50,19.4c3.3,0,6,38.9,6,42.2c0,3.3-2.7,6-6,6c-3.3,0-6-2.7-6-6C44,58.3,46.7,19.4,50,19.4"/>
	<path fill="#16C95E" d="M50,1.3C23.4,1.3,1.8,22.9,1.8,49.5c0,26.6,21.6,48.2,48.2,48.2c26.6,0,48.2-21.6,48.2-48.2
		C98.3,22.9,76.7,1.3,50,1.3 M50,88.7c-21.6,0-39.2-17.6-39.2-39.2c0-21.6,17.6-39.2,39.2-39.2c21.6,0,39.2,17.6,39.2,39.2
		C89.2,71.2,71.7,88.7,50,88.7"/>
</g>
</svg>
