<?xml version="1.0" encoding="utf-8"?>
<!-- Generator: Adobe Illustrator 20.0.0, SVG Export Plug-In . SVG Version: 6.00 Build 0)  -->
<svg version="1.1" id="Layer_1" xmlns="http://www.w3.org/2000/svg" xmlns:xlink="http://www.w3.org/1999/xlink" x="0px" y="0px"
	 viewBox="0 0 100 100" style="enable-background:new 0 0 100 100;" xml:space="preserve">
<style type="text/css">
	.st0{fill:#010101;}
</style>
<path class="st0" d="M69,7.4H31.2C18,7.4,7.3,18.1,7.3,31.2V69c0,13.1,10.7,23.8,23.8,23.8H69c13.1,0,23.8-10.7,23.8-23.8V31.2
	C92.8,18.1,82.1,7.4,69,7.4z M85.8,69c0,9.3-7.6,16.8-16.8,16.8H31.2c-9.3,0-16.8-7.6-16.8-16.8V31.2c0-9.3,7.6-16.8,16.8-16.8H69
	c9.3,0,16.8,7.6,16.8,16.8V69z"/>
<path class="st0" d="M50.1,28C37.9,28,28,38,28,50.1c0,12.2,9.9,22.1,22.1,22.1s22.1-9.9,22.1-22.1C72.2,38,62.3,28,50.1,28z
	 M50.1,65.2c-8.3,0-15.1-6.8-15.1-15.1S41.8,35,50.1,35s15.1,6.8,15.1,15.1S58.4,65.2,50.1,65.2z"/>
<circle class="st0" cx="72.8" cy="27.6" r="5.7"/>
</svg>
