<?xml version="1.0" encoding="utf-8"?>
<!-- Generator: Adobe Illustrator 18.1.1, SVG Export Plug-In . SVG Version: 6.00 Build 0)  -->
<svg version="1.1" id="Layer_1" xmlns="http://www.w3.org/2000/svg" xmlns:xlink="http://www.w3.org/1999/xlink" x="0px" y="0px"
	 viewBox="0 0 16 16" enable-background="new 0 0 16 16" xml:space="preserve">
<g>
	<path fill="#010101" d="M15,0H1C0.4,0,0,0.4,0,1v14c0,0.6,0.4,1,1,1h14c0.6,0,1-0.4,1-1V1C16,0.4,15.6,0,15,0z M15,15H1V1h14V15z"
		/>
	<path fill="#010101" d="M6,4H3v3h3V4z M5,6H4V5h1V6z"/>
	<rect x="7" y="4" fill="#010101" width="6" height="1"/>
	<rect x="7" y="6" fill="#010101" width="6" height="1"/>
	<path fill="#010101" d="M6,9H3v3h3V9z M5,11H4v-1h1V11z"/>
	<rect x="7" y="9" fill="#010101" width="6" height="1"/>
	<rect x="7" y="11" fill="#010101" width="6" height="1"/>
</g>
<g>
</g>
<g>
</g>
<g>
</g>
<g>
</g>
<g>
</g>
<g>
</g>
</svg>
