<?xml version="1.0" encoding="utf-8"?>
<!-- Generator: Adobe Illustrator 20.0.0, SVG Export Plug-In . SVG Version: 6.00 Build 0)  -->
<svg version="1.1" id="Layer_1" xmlns="http://www.w3.org/2000/svg" xmlns:xlink="http://www.w3.org/1999/xlink" x="0px" y="0px"
	 viewBox="0 0 100 100" style="enable-background:new 0 0 100 100;" xml:space="preserve">
<style type="text/css">
	.st0{fill:#010101;}
</style>
<path class="st0" d="M94.1,17.1C94.1,17.1,94.1,17.1,94.1,17.1c-0.1,0-0.2,0-0.3,0c-0.3,0-0.6,0.1-0.9,0.1l-29.4,7.6
	c-1.4,0.4-2.5,1.4-2.9,2.8s0,2.9,1,3.9l4.3,4.4L44.8,56.7l-9.4-8.8c-1.7-1.6-3.9-2.4-6.2-2.4c-2.3,0-4.6,0.9-6.3,2.5L4.8,65.3
	C3,66.9,2,69.2,2,71.6c-0.1,2.4,0.8,4.7,2.5,6.5c1.7,1.8,4.1,2.8,6.6,2.8c2.3,0,4.6-0.9,6.3-2.5l12-11.4l9.5,8.9
	c1.7,1.6,3.9,2.4,6.2,2.4c2.4,0,4.7-0.9,6.4-2.6l27.4-26.9l4.3,4.4c0.8,0.8,1.8,1.2,2.9,1.2c0.3,0,0.7,0,1-0.1
	c1.4-0.4,2.5-1.4,2.9-2.8l8.1-29.2c0.1-0.4,0.2-0.8,0.2-1.2C98,18.9,96.3,17.1,94.1,17.1z M45,74.4c-1.2,0-2.5-0.5-3.5-1.4
	L29.2,61.6l-14.7,14c-1,0.9-2.2,1.4-3.5,1.4c-1.3,0-2.7-0.5-3.7-1.6c-1.9-2-1.9-5.3,0.2-7.2l18.2-17.3c1-0.9,2.2-1.4,3.5-1.4
	c1.2,0,2.5,0.5,3.5,1.4l12.2,11.4l26.8-26.3l-7.1-7.2L94,21.1l-8.1,29.3l-7.1-7.2L48.6,72.9C47.6,73.9,46.3,74.4,45,74.4z"/>
</svg>
