<?xml version="1.0" encoding="UTF-8"?>
<svg width="301px" height="81px" viewBox="0 0 301 81" version="1.1" xmlns="http://www.w3.org/2000/svg" xmlns:xlink="http://www.w3.org/1999/xlink">
    <!-- Generator: Sketch 42 (36781) - http://www.bohemiancoding.com/sketch -->
    <title>Desktop HD</title>
    <desc>Created with Sketch.</desc>
    <defs></defs>
    <g id="Page-1" stroke="none" stroke-width="1" fill="none" fill-rule="evenodd">
        <g id="Desktop-HD" fill-rule="nonzero">
            <g id="stockx-homepage-logo-black" transform="translate(70.000000, 4.000000)">
                <g id="Page-1">
                    <g id="stockx-homepage-logo">
                        <g id="XMLID_31_" transform="translate(98.000000, 0.000000)" fill="#3FAE2A">
                            <polygon id="XMLID_33_" points="22.4 41.4 0.5 72.6 23.8 63.8 30.4 53.6"></polygon>
                            <polygon id="XMLID_32_" points="39.5 40 39.5 39.9 35.3 34 40.5 38.4 54 17.8 59 18.4 59.3 0.3 34.2 15.3 40.4 16.1 31.5 28.7 21.3 14.3 0.5 4.9 23.5 40 23.5 40 31.5 52.1 31.5 52.1 39.2 63.8 62.5 72.6"></polygon>
                        </g>
                        <g id="XMLID_22_" transform="translate(0.000000, 16.000000)" fill="#000000">
                            <path d="M10.7,21.4 C8.7,20.6 6.9,19.9 6.9,18.8 C6.9,17.1 9,17 9.6,17 C12.6,17 14.3,18.6 14.3,18.7 L15,19.4 L17.4,14.9 L17,14.5 C16.9,14.4 14.5,11.9 9.6,11.9 C4.6,11.9 1.1,14.7 1.1,18.7 C1.1,23.2 5.1,24.8 8.2,26.1 C10.3,26.9 12,27.6 12,28.8 C12,30 10.6,30.7 9.2,30.7 C5.9,30.7 3.7,28.5 3.6,28.4 L2.9,27.7 L-1.13686838e-13,31.9 L0.4,32.3 C0.5,32.4 3.6,35.7 9.1,35.7 C14.1,35.7 17.6,32.8 17.6,28.7 C17.9,24.3 13.9,22.7 10.7,21.4 Z" id="XMLID_30_"></path>
                            <path d="M32.7,17.6 L32.7,12.2 L26.5,12.2 L26.5,5.6 L20.3,6.7 L20.3,17.3 L20.3,23 L20.3,27.7 C20.3,29 20.4,30.2 20.6,31.3 C20.8,32.3 21.2,33.2 21.8,33.9 C22.4,34.6 23.2,35.2 24.2,35.5 C25.2,35.8 26.5,36 28,36 C28.7,36 29.4,35.9 30.3,35.8 C31.2,35.7 32,35.5 32.6,35.2 L32.8,35.1 L32.8,29.6 L32.4,29.9 C32.1,30.1 31.6,30.3 31.1,30.4 C30.5,30.5 30,30.6 29.5,30.6 C28.3,30.6 27.6,30.3 27.2,29.7 C26.8,29.1 26.6,28.2 26.6,27.1 L26.6,17.4 L32.7,17.4 L32.7,17.6 Z" id="XMLID_29_"></path>
                            <path d="M77,28.4 C76.5,29.1 75.9,29.6 75.2,29.9 C74.5,30.2 73.7,30.4 72.9,30.4 C71.9,30.4 71,30.2 70.2,29.9 C69.4,29.5 68.7,29.1 68.2,28.4 C67.6,27.8 67.2,27.1 66.9,26.3 C66.6,25.5 66.5,24.7 66.5,23.8 C66.5,23 66.6,22.1 66.9,21.3 C67.2,20.5 67.6,19.8 68.2,19.2 C68.8,18.6 69.4,18.1 70.2,17.7 C71,17.3 71.9,17.2 72.9,17.2 C73.6,17.2 74.3,17.4 75,17.8 C75.7,18.2 76.4,18.7 77,19.4 L77.2,19.6 L81.5,15.3 L81.3,15.1 C80.2,13.9 78.8,13 77.3,12.4 C74.1,11.2 70.8,11.4 67.9,12.4 C66.4,13 65,13.8 63.9,14.9 C62.8,16 61.9,17.3 61.2,18.7 C60.5,20.2 60.2,21.9 60.2,23.7 C60.2,25.5 60.5,27.2 61.2,28.7 C61.9,30.2 62.8,31.5 63.9,32.5 C65,33.6 66.4,34.4 67.9,35 C69.4,35.6 71.1,35.9 72.8,35.9 C73.3,35.9 73.9,35.8 74.6,35.7 C75.3,35.6 76,35.4 76.8,35.1 C77.6,34.8 78.3,34.5 79.1,34.1 C79.9,33.7 80.5,33.2 81.1,32.6 L81.3,32.4 L77.1,27.9 L77,28.4 Z" id="XMLID_24_"></path>
                            <path d="M58.2,18.8 C57.5,17.3 56.6,16 55.5,15 C54.4,13.9 53,13.1 51.5,12.5 C50,11.9 48.3,11.6 46.6,11.6 C44.9,11.6 43.2,11.9 41.7,12.5 C40.2,13.1 38.8,13.9 37.7,15 C36.6,16.1 35.7,17.4 35,18.8 C34.3,20.3 34,22 34,23.8 C34,25.6 34.3,27.3 35,28.8 C35.7,30.3 36.6,31.6 37.7,32.6 C38.8,33.7 40.2,34.5 41.7,35.1 C43.2,35.7 44.9,36 46.6,36 C48.3,36 50,35.7 51.5,35.1 C53,34.5 54.4,33.7 55.5,32.6 C56.6,31.5 57.5,30.2 58.2,28.8 C58.9,27.3 59.2,25.6 59.2,23.8 C59.2,22 58.8,20.3 58.2,18.8 Z M53,23.8 C53,24.6 52.9,25.5 52.6,26.3 C52.3,27.1 51.9,27.8 51.3,28.4 C50.7,29 50.1,29.5 49.3,29.9 C48.5,30.3 47.6,30.4 46.6,30.4 C45.6,30.4 44.7,30.2 43.9,29.9 C43.1,29.5 42.4,29 41.9,28.4 C41.3,27.8 40.9,27.1 40.6,26.3 C40.3,25.5 40.2,24.7 40.2,23.8 C40.2,23 40.3,22.1 40.6,21.3 C40.9,20.5 41.3,19.8 41.9,19.2 C42.5,18.6 43.1,18.1 43.9,17.7 C44.7,17.3 45.6,17.2 46.6,17.2 C47.6,17.2 48.5,17.4 49.3,17.7 C50.1,18.1 50.8,18.5 51.3,19.2 C51.9,19.8 52.3,20.5 52.6,21.3 C52.8,22.2 53,23 53,23.8 Z" id="XMLID_25_"></path>
                            <polygon id="XMLID_23_" points="95.7 22.8 105.7 12.2 97.7 12.2 89.3 21.2 89.3 0.2 83.1 1.3 83.1 35.5 89.3 35.5 89.3 24.3 98 35.5 106.3 35.5"></polygon>
                        </g>
                    </g>
                </g>
            </g>
        </g>
    </g>
</svg>