<?xml version="1.0" encoding="utf-8"?>
<!-- Generator: Adobe Illustrator 20.0.0, SVG Export Plug-In . SVG Version: 6.00 Build 0)  -->
<svg version="1.1" id="Layer_1" xmlns="http://www.w3.org/2000/svg" xmlns:xlink="http://www.w3.org/1999/xlink" x="0px" y="0px"
	 viewBox="0 0 100 100" style="enable-background:new 0 0 100 100;" xml:space="preserve">
<style type="text/css">
	.st0{fill:#010101;}
</style>
<path class="st0" d="M93.2,24.7C90,26,86.7,27,83,27.4c3.6-2.1,6.5-5.5,7.8-9.5c-3.4,1.9-7.2,3.4-11.2,4.2
	c-3.2-3.4-7.8-5.4-12.9-5.4C57,16.7,49,24.4,49,33.9c0,1.3,0.2,2.7,0.4,3.9C34.8,37,21.7,30.2,13,19.8c-1.5,2.6-2.4,5.5-2.4,8.7
	c0,5.9,3.1,11.2,7.9,14.3c-2.9-0.1-5.7-0.9-8-2.1v0.2c0,8.3,6.1,15.3,14.2,16.8c-1.5,0.4-3,0.6-4.7,0.6c-1.1,0-2.2-0.1-3.4-0.3
	c2.2,6.8,8.7,11.8,16.5,11.9c-6,4.5-13.7,7.2-21.9,7.2c-1.4,0-2.8-0.1-4.2-0.3c7.9,4.9,17.1,7.7,27.1,7.7
	c32.5,0,50.3-26.2,50.3-48.8l-0.1-2.2C87.8,31.1,90.8,28.1,93.2,24.7"/>
</svg>
