<?xml version="1.0" encoding="utf-8"?>
<!-- Generator: Adobe Illustrator 19.0.0, SVG Export Plug-In . SVG Version: 6.00 Build 0)  -->
<svg version="1.1" id="Layer_1" xmlns="http://www.w3.org/2000/svg" xmlns:xlink="http://www.w3.org/1999/xlink" x="0px" y="0px"
	 viewBox="0 0 100 100" style="enable-background:new 0 0 100 100;" xml:space="preserve">
<style type="text/css">
	.st0{fill:#516873;}
	.st1{fill:#FFFFFF;}
	.st2{fill:#EFC75E;}
</style>
<path class="st0" d="M18.3,3h-3c-1.7,0-3,1.3-3,3v89.7c0,1.7,1.3,3,3,3h3c1.7,0,3-1.3,3-3V6C21.3,4.3,19.9,3,18.3,3 M51.2,3h-3
	c-1.7,0-3,1.3-3,3v89.7c0,1.7,1.3,3,3,3h3c1.7,0,3-1.3,3-3V6C54.2,4.3,52.8,3,51.2,3 M84.1,3h-3c-1.7,0-3,1.3-3,3v89.7
	c0,1.7,1.3,3,3,3h3c1.7,0,3-1.3,3-3V6C87.1,4.3,85.7,3,84.1,3"/>
<path class="st1" d="M16.8,26.9c-7.4,0-13.5,6-13.5,13.5c0,7.4,6,13.5,13.5,13.5s13.5-6,13.5-13.5C30.3,32.9,24.2,26.9,16.8,26.9
	 M49.7,53.8c-7.4,0-13.5,6-13.5,13.5c0,7.4,6,13.5,13.5,13.5s13.5-6,13.5-13.5C63.1,59.9,57.1,53.8,49.7,53.8 M82.6,26.9
	c-7.4,0-13.5,6-13.5,13.5c0,7.4,6,13.5,13.5,13.5S96,47.8,96,40.4C96,32.9,90,26.9,82.6,26.9"/>
<path class="st2" d="M82.6,26.9c-7.4,0-13.5,6-13.5,13.5c0,7.4,6,13.5,13.5,13.5S96,47.8,96,40.4C96,32.9,90,26.9,82.6,26.9
	 M82.6,49.3c-4.9,0-9-4-9-9c0-4.9,4-9,9-9s9,4,9,9C91.6,45.3,87.5,49.3,82.6,49.3 M49.7,53.8c-7.4,0-13.5,6-13.5,13.5
	c0,7.4,6,13.5,13.5,13.5s13.5-6,13.5-13.5C63.1,59.9,57.1,53.8,49.7,53.8 M49.7,76.3c-4.9,0-9-4-9-9c0-4.9,4-9,9-9s9,4,9,9
	C58.7,72.2,54.6,76.3,49.7,76.3 M16.8,26.9c-7.4,0-13.5,6-13.5,13.5c0,7.4,6,13.5,13.5,13.5s13.5-6,13.5-13.5
	C30.3,32.9,24.2,26.9,16.8,26.9 M16.8,49.3c-4.9,0-9-4-9-9c0-4.9,4-9,9-9s9,4,9,9C25.8,45.3,21.7,49.3,16.8,49.3"/>
</svg>
